<?xml version="1.0" encoding="UTF-8" standalone="no"?>
<!-- Created with Inkscape (http://www.inkscape.org/) -->

<svg
   width="158.75023mm"
   height="21.454327mm"
   viewBox="0 0 158.75023 21.454327"
   version="1.1"
   id="svg1"
   inkscape:export-filename="logo.png"
   inkscape:export-xdpi="96"
   inkscape:export-ydpi="96"
   sodipodi:docname="logo.svg"
   inkscape:version="1.3 (0e150ed6c4, 2023-07-21)"
   xmlns:inkscape="http://www.inkscape.org/namespaces/inkscape"
   xmlns:sodipodi="http://sodipodi.sourceforge.net/DTD/sodipodi-0.dtd"
   xmlns="http://www.w3.org/2000/svg"
   xmlns:svg="http://www.w3.org/2000/svg">
  <sodipodi:namedview
     id="namedview1"
     pagecolor="#505050"
     bordercolor="#eeeeee"
     borderopacity="1"
     inkscape:showpageshadow="0"
     inkscape:pageopacity="0"
     inkscape:pagecheckerboard="0"
     inkscape:deskcolor="#d1d1d1"
     inkscape:document-units="mm"
     inkscape:zoom="0.52666591"
     inkscape:cx="142.40527"
     inkscape:cy="450.95002"
     inkscape:window-width="1920"
     inkscape:window-height="1009"
     inkscape:window-x="-8"
     inkscape:window-y="-8"
     inkscape:window-maximized="1"
     inkscape:current-layer="layer1" />
  <defs
     id="defs1" />
  <g
     inkscape:label="Capa 1"
     inkscape:groupmode="layer"
     id="layer1"
     transform="translate(-38.555161,-150.23832)">
    <g
       id="text1"
       style="font-weight:900;font-size:29.3092px;line-height:10.4211px;font-family:Montserrat;-inkscape-font-specification:'Montserrat Heavy';text-align:center;letter-spacing:-1.27121px;word-spacing:0px;text-anchor:middle;fill:#878787;fill-opacity:0.682927;stroke-width:2.25455;stroke-linecap:round;paint-order:fill markers stroke"
       aria-label="HIDRORUZ"
       inkscape:export-filename="logo.svg"
       inkscape:export-xdpi="96"
       inkscape:export-ydpi="96"
       transform="translate(1.5054775,139.10154)">
      <path
         style="fill:#ffffff;fill-opacity:1"
         d="m 38.710244,139.38255 h 6.916971 v 20.51644 h -6.916971 z m -6.389406,20.51644 h -6.916971 v -20.51644 h 6.916971 z m 6.858353,-7.56178 h -7.3273 v -5.68598 h 7.3273 z m 8.518089,7.56178 v -20.51644 h 6.916971 v 20.51644 z m 8.987021,0 v -20.51644 h 10.111674 q 3.429176,0 6.037695,1.26029 2.608519,1.23099 4.073979,3.51711 1.46546,2.28611 1.46546,5.45151 0,3.1947 -1.46546,5.51013 -1.46546,2.28611 -4.073979,3.54641 -2.608519,1.23099 -6.037695,1.23099 z m 6.916971,-5.3929 h 2.901611 q 1.46546,0 2.5499,-0.55687 1.11375,-0.55688 1.729243,-1.64132 0.615493,-1.11375 0.615493,-2.69644 0,-1.55339 -0.615493,-2.63783 -0.615493,-1.08444 -1.729243,-1.64132 -1.08444,-0.55687 -2.5499,-0.55687 h -2.901611 z m 16.021227,5.3929 v -20.51644 h 9.8772 q 2.872302,0 4.953255,0.93789 2.110262,0.9379 3.253321,2.69645 1.143059,1.72924 1.143059,4.10329 0,2.37404 -1.143059,4.10328 -1.143059,1.69994 -3.253321,2.60852 -2.080953,0.90859 -4.953255,0.90859 h -6.037695 l 3.077466,-2.84299 v 8.00141 z m 12.280555,0 -5.041183,-7.47385 h 7.3273 l 5.099801,7.47385 z m -5.363584,-7.23938 -3.077466,-3.13608 h 5.598057 q 1.436151,0 2.110263,-0.6448 0.70342,-0.6448 0.70342,-1.75855 0,-1.11375 -0.70342,-1.75856 -0.674112,-0.6448 -2.110263,-0.6448 h -5.598057 l 3.077466,-3.13608 z m 24.40367,7.70832 q -2.49128,0 -4.63085,-0.79134 -2.11026,-0.79135 -3.66365,-2.2275 -1.55339,-1.46546 -2.43267,-3.42918 -0.849962,-1.96372 -0.849962,-4.27914 0,-2.34474 0.849962,-4.27915 0.87928,-1.96371 2.43267,-3.39986 1.55339,-1.46546 3.66365,-2.25681 2.13957,-0.79135 4.63085,-0.79135 2.52059,0 4.63086,0.79135 2.11026,0.79135 3.66365,2.25681 1.55338,1.43615 2.40335,3.39986 0.87928,1.93441 0.87928,4.27915 0,2.31542 -0.87928,4.27914 -0.84997,1.96372 -2.40335,3.42918 -1.55339,1.43615 -3.66365,2.2275 -2.11027,0.79134 -4.63086,0.79134 z m 0,-5.59805 q 0.96721,0 1.78786,-0.35171 0.84997,-0.35171 1.46546,-0.99652 0.64481,-0.67411 0.99652,-1.612 0.35171,-0.96721 0.35171,-2.16888 0,-1.20168 -0.35171,-2.13957 -0.35171,-0.96721 -0.99652,-1.61201 -0.61549,-0.67411 -1.46546,-1.02582 -0.82065,-0.35171 -1.78786,-0.35171 -0.9672,0 -1.81717,0.35171 -0.82066,0.35171 -1.46546,1.02582 -0.61549,0.6448 -0.9672,1.61201 -0.35171,0.93789 -0.35171,2.13957 0,1.20167 0.35171,2.16888 0.35171,0.93789 0.9672,1.612 0.6448,0.64481 1.46546,0.99652 0.84997,0.35171 1.81717,0.35171 z"
         id="path4" />
      <path
         style="fill:#b40635;fill-opacity:1"
         d="m 123.76964,159.89899 v -20.51644 h 9.8772 q 2.87231,0 4.95326,0.93789 2.11026,0.9379 3.25332,2.69645 1.14306,1.72924 1.14306,4.10329 0,2.37404 -1.14306,4.10328 -1.14306,1.69994 -3.25332,2.60852 -2.08095,0.90859 -4.95326,0.90859 h -6.03769 l 3.07746,-2.84299 v 8.00141 z m 12.28056,0 -5.04118,-7.47385 h 7.3273 l 5.0998,7.47385 z m -5.36359,-7.23938 -3.07746,-3.13608 h 5.59806 q 1.43615,0 2.11026,-0.6448 0.70342,-0.6448 0.70342,-1.75855 0,-1.11375 -0.70342,-1.75856 -0.67411,-0.6448 -2.11026,-0.6448 h -5.59806 l 3.07746,-3.13608 z m 23.46579,7.70832 q -4.71879,0 -7.35661,-2.5499 -2.63783,-2.5499 -2.63783,-7.15144 v -11.28404 h 6.91697 v 11.07887 q 0,2.34474 0.84997,3.34125 0.84996,0.96721 2.28611,0.96721 1.46546,0 2.28612,-0.96721 0.84997,-0.99651 0.84997,-3.34125 v -11.07887 h 6.79973 v 11.28404 q 0,4.60154 -2.63782,7.15144 -2.63783,2.5499 -7.35661,2.5499 z m 11.1559,-0.46894 v -4.24984 l 11.43059,-13.30637 0.84996,2.40335 h -11.98746 v -5.36358 h 18.08378 v 4.24983 l -11.43059,13.30638 -0.84997,-2.40336 h 12.7495 v 5.36359 z"
         id="path5" />
    </g>
  </g>
</svg>
